<?xml version="1.0" encoding="UTF-8" standalone="no"?>
<!DOCTYPE svg PUBLIC "-//W3C//DTD SVG 1.1//EN"
 "http://www.w3.org/Graphics/SVG/1.1/DTD/svg11.dtd">
<!-- Generated by graphviz version 2.47.0 (20210316.0004)
 -->
<!-- Title: dependencies Pages: 1 -->
<svg width="504pt" height="284pt"
 viewBox="0.00 0.00 504.00 284.00" xmlns="http://www.w3.org/2000/svg" xmlns:xlink="http://www.w3.org/1999/xlink">
<g id="graph0" class="graph" transform="scale(1 1) rotate(0) translate(4 280)">
<title>dependencies</title>
<polygon fill="white" stroke="transparent" points="-4,4 -4,-280 500,-280 500,4 -4,4"/>
<text text-anchor="start" x="227.01" y="-42.4" font-family="sans-serif" font-weight="bold" font-size="14.00">Legend</text>
<polygon fill="#ffffb3" stroke="transparent" points="14,-10 14,-30 34,-30 34,-10 14,-10"/>
<text text-anchor="start" x="37.63" y="-15.4" font-family="sans-serif" font-size="14.00"> &#160;Declarations</text>
<polygon fill="#8dd3c7" stroke="transparent" points="127,-10 127,-30 147,-30 147,-10 127,-10"/>
<text text-anchor="start" x="150.73" y="-15.4" font-family="sans-serif" font-size="14.00"> &#160;Module</text>
<polygon fill="#80b1d3" stroke="transparent" points="213,-10 213,-30 233,-30 233,-10 213,-10"/>
<text text-anchor="start" x="236.78" y="-15.4" font-family="sans-serif" font-size="14.00"> &#160;Bootstrap</text>
<polygon fill="#fdb462" stroke="transparent" points="310,-10 310,-30 330,-30 330,-10 310,-10"/>
<text text-anchor="start" x="333.67" y="-15.4" font-family="sans-serif" font-size="14.00"> &#160;Providers</text>
<polygon fill="#fb8072" stroke="transparent" points="406,-10 406,-30 426,-30 426,-10 406,-10"/>
<text text-anchor="start" x="429.73" y="-15.4" font-family="sans-serif" font-size="14.00"> &#160;Exports</text>
<g id="clust1" class="cluster">
<title>cluster_SharedModule</title>
<polygon fill="none" stroke="black" stroke-dasharray="1,5" points="19.5,-70 19.5,-268 476.5,-268 476.5,-70 19.5,-70"/>
</g>
<g id="clust2" class="cluster">
<title>cluster_SharedModule_declarations</title>
<polygon fill="none" stroke="black" points="33.5,-78 33.5,-130 463.5,-130 463.5,-78 33.5,-78"/>
</g>
<g id="clust7" class="cluster">
<title>cluster_SharedModule_exports</title>
<polygon fill="none" stroke="black" points="27.5,-208 27.5,-260 468.5,-260 468.5,-208 27.5,-208"/>
</g>
<!-- ApiErrorComponent -->
<g id="node1" class="node">
<title>ApiErrorComponent</title>
<polygon fill="#ffffb3" stroke="black" points="455.36,-122 323.64,-122 323.64,-86 455.36,-86 455.36,-122"/>
<text text-anchor="middle" x="389.5" y="-99.8" font-family="Times,serif" font-size="14.00">ApiErrorComponent</text>
</g>
<!-- SharedModule -->
<g id="node4" class="node">
<title>SharedModule</title>
<polygon fill="#8dd3c7" stroke="black" points="293.92,-187 290.92,-191 269.92,-191 266.92,-187 195.08,-187 195.08,-151 293.92,-151 293.92,-187"/>
<text text-anchor="middle" x="244.5" y="-164.8" font-family="Times,serif" font-size="14.00">SharedModule</text>
</g>
<!-- ApiErrorComponent&#45;&gt;SharedModule -->
<g id="edge1" class="edge">
<title>ApiErrorComponent&#45;&gt;SharedModule</title>
<path fill="none" stroke="black" d="M411.89,-122.02C411.89,-139.37 411.89,-163 411.89,-163 411.89,-163 303.82,-163 303.82,-163"/>
<polygon fill="black" stroke="black" points="303.82,-159.5 293.82,-163 303.82,-166.5 303.82,-159.5"/>
</g>
<!-- HeaderComponent -->
<g id="node2" class="node">
<title>HeaderComponent</title>
<polygon fill="#ffffb3" stroke="black" points="305.24,-122 183.76,-122 183.76,-86 305.24,-86 305.24,-122"/>
<text text-anchor="middle" x="244.5" y="-99.8" font-family="Times,serif" font-size="14.00">HeaderComponent</text>
</g>
<!-- HeaderComponent&#45;&gt;SharedModule -->
<g id="edge2" class="edge">
<title>HeaderComponent&#45;&gt;SharedModule</title>
<path fill="none" stroke="black" d="M244.5,-122.11C244.5,-122.11 244.5,-140.99 244.5,-140.99"/>
<polygon fill="black" stroke="black" points="241,-140.99 244.5,-150.99 248,-140.99 241,-140.99"/>
</g>
<!-- SpinnerComponent -->
<g id="node3" class="node">
<title>SpinnerComponent</title>
<polygon fill="#ffffb3" stroke="black" points="165.88,-122 41.12,-122 41.12,-86 165.88,-86 165.88,-122"/>
<text text-anchor="middle" x="103.5" y="-99.8" font-family="Times,serif" font-size="14.00">SpinnerComponent</text>
</g>
<!-- SpinnerComponent&#45;&gt;SharedModule -->
<g id="edge3" class="edge">
<title>SpinnerComponent&#45;&gt;SharedModule</title>
<path fill="none" stroke="black" d="M122.81,-122.02C122.81,-139.37 122.81,-163 122.81,-163 122.81,-163 185.01,-163 185.01,-163"/>
<polygon fill="black" stroke="black" points="185.01,-166.5 195.01,-163 185.01,-159.5 185.01,-166.5"/>
</g>
<!-- ApiErrorComponent  -->
<g id="node5" class="node">
<title>ApiErrorComponent </title>
<polygon fill="#fb8072" stroke="black" points="460.36,-252 324.64,-252 324.64,-216 460.36,-216 460.36,-252"/>
<text text-anchor="middle" x="392.5" y="-229.8" font-family="Times,serif" font-size="14.00">ApiErrorComponent </text>
</g>
<!-- SharedModule&#45;&gt;ApiErrorComponent  -->
<g id="edge4" class="edge">
<title>SharedModule&#45;&gt;ApiErrorComponent </title>
<path fill="none" stroke="black" stroke-dasharray="5,2" d="M293.81,-175C328.35,-175 368.36,-175 368.36,-175 368.36,-175 368.36,-205.98 368.36,-205.98"/>
<polygon fill="black" stroke="black" points="364.86,-205.98 368.36,-215.98 371.86,-205.98 364.86,-205.98"/>
</g>
<!-- HeaderComponent  -->
<g id="node6" class="node">
<title>HeaderComponent </title>
<polygon fill="#fb8072" stroke="black" points="307.24,-252 181.76,-252 181.76,-216 307.24,-216 307.24,-252"/>
<text text-anchor="middle" x="244.5" y="-229.8" font-family="Times,serif" font-size="14.00">HeaderComponent </text>
</g>
<!-- SharedModule&#45;&gt;HeaderComponent  -->
<g id="edge5" class="edge">
<title>SharedModule&#45;&gt;HeaderComponent </title>
<path fill="none" stroke="black" stroke-dasharray="5,2" d="M244.5,-187.11C244.5,-187.11 244.5,-205.99 244.5,-205.99"/>
<polygon fill="black" stroke="black" points="241,-205.99 244.5,-215.99 248,-205.99 241,-205.99"/>
</g>
<!-- SpinnerComponent  -->
<g id="node7" class="node">
<title>SpinnerComponent </title>
<polygon fill="#fb8072" stroke="black" points="163.88,-252 35.12,-252 35.12,-216 163.88,-216 163.88,-252"/>
<text text-anchor="middle" x="99.5" y="-229.8" font-family="Times,serif" font-size="14.00">SpinnerComponent </text>
</g>
<!-- SharedModule&#45;&gt;SpinnerComponent  -->
<g id="edge6" class="edge">
<title>SharedModule&#45;&gt;SpinnerComponent </title>
<path fill="none" stroke="black" stroke-dasharray="5,2" d="M195.28,-175C147.44,-175 81.94,-175 81.94,-175 81.94,-175 81.94,-205.98 81.94,-205.98"/>
<polygon fill="black" stroke="black" points="78.44,-205.98 81.94,-215.98 85.44,-205.98 78.44,-205.98"/>
</g>
</g>
</svg>
