<?xml version="1.0" encoding="UTF-8" standalone="no"?>
<!DOCTYPE svg PUBLIC "-//W3C//DTD SVG 1.1//EN"
 "http://www.w3.org/Graphics/SVG/1.1/DTD/svg11.dtd">
<!-- Generated by graphviz version 2.47.0 (20210316.0004)
 -->
<!-- Title: dependencies Pages: 1 -->
<svg width="561pt" height="211pt"
 viewBox="0.00 0.00 561.00 211.00" xmlns="http://www.w3.org/2000/svg" xmlns:xlink="http://www.w3.org/1999/xlink">
<g id="graph0" class="graph" transform="scale(1 1) rotate(0) translate(4 207)">
<title>dependencies</title>
<polygon fill="white" stroke="transparent" points="-4,4 -4,-207 557,-207 557,4 -4,4"/>
<text text-anchor="start" x="255.51" y="-42.4" font-family="sans-serif" font-weight="bold" font-size="14.00">Legend</text>
<polygon fill="#ffffb3" stroke="transparent" points="42.5,-10 42.5,-30 62.5,-30 62.5,-10 42.5,-10"/>
<text text-anchor="start" x="66.13" y="-15.4" font-family="sans-serif" font-size="14.00"> &#160;Declarations</text>
<polygon fill="#8dd3c7" stroke="transparent" points="155.5,-10 155.5,-30 175.5,-30 175.5,-10 155.5,-10"/>
<text text-anchor="start" x="179.23" y="-15.4" font-family="sans-serif" font-size="14.00"> &#160;Module</text>
<polygon fill="#80b1d3" stroke="transparent" points="241.5,-10 241.5,-30 261.5,-30 261.5,-10 241.5,-10"/>
<text text-anchor="start" x="265.28" y="-15.4" font-family="sans-serif" font-size="14.00"> &#160;Bootstrap</text>
<polygon fill="#fdb462" stroke="transparent" points="338.5,-10 338.5,-30 358.5,-30 358.5,-10 338.5,-10"/>
<text text-anchor="start" x="362.17" y="-15.4" font-family="sans-serif" font-size="14.00"> &#160;Providers</text>
<polygon fill="#fb8072" stroke="transparent" points="434.5,-10 434.5,-30 454.5,-30 454.5,-10 434.5,-10"/>
<text text-anchor="start" x="458.23" y="-15.4" font-family="sans-serif" font-size="14.00"> &#160;Exports</text>
<g id="clust1" class="cluster">
<title>cluster_FeedModule</title>
<polygon fill="none" stroke="black" stroke-dasharray="1,5" points="8,-70 8,-195 545,-195 545,-70 8,-70"/>
</g>
<g id="clust4" class="cluster">
<title>cluster_FeedModule_imports</title>
<polygon fill="none" stroke="black" points="148,-78 148,-130 537,-130 537,-78 148,-78"/>
</g>
<g id="clust2" class="cluster">
<title>cluster_FeedModule_declarations</title>
<polygon fill="none" stroke="black" points="16,-78 16,-130 140,-130 140,-78 16,-78"/>
</g>
<!-- FeedComponent -->
<g id="node1" class="node">
<title>FeedComponent</title>
<polygon fill="#ffffb3" stroke="black" points="132.05,-122 23.95,-122 23.95,-86 132.05,-86 132.05,-122"/>
<text text-anchor="middle" x="78" y="-99.8" font-family="Times,serif" font-size="14.00">FeedComponent</text>
</g>
<!-- FeedModule -->
<g id="node2" class="node">
<title>FeedModule</title>
<polygon fill="#8dd3c7" stroke="black" points="308.26,-187 305.26,-191 284.26,-191 281.26,-187 221.74,-187 221.74,-151 308.26,-151 308.26,-187"/>
<text text-anchor="middle" x="265" y="-164.8" font-family="Times,serif" font-size="14.00">FeedModule</text>
</g>
<!-- FeedComponent&#45;&gt;FeedModule -->
<g id="edge1" class="edge">
<title>FeedComponent&#45;&gt;FeedModule</title>
<path fill="none" stroke="black" d="M78,-122.11C78,-141.34 78,-169 78,-169 78,-169 211.63,-169 211.63,-169"/>
<polygon fill="black" stroke="black" points="211.63,-172.5 221.63,-169 211.63,-165.5 211.63,-172.5"/>
</g>
<!-- FeedRoutingModule -->
<g id="node3" class="node">
<title>FeedRoutingModule</title>
<polygon fill="#8dd3c7" stroke="black" points="528.88,-122 525.88,-126 504.88,-126 501.88,-122 397.12,-122 397.12,-86 528.88,-86 528.88,-122"/>
<text text-anchor="middle" x="463" y="-99.8" font-family="Times,serif" font-size="14.00">FeedRoutingModule</text>
</g>
<!-- FeedRoutingModule&#45;&gt;FeedModule -->
<g id="edge2" class="edge">
<title>FeedRoutingModule&#45;&gt;FeedModule</title>
<path fill="none" stroke="black" d="M463,-122.11C463,-141.34 463,-169 463,-169 463,-169 318.45,-169 318.45,-169"/>
<polygon fill="black" stroke="black" points="318.45,-165.5 308.45,-169 318.45,-172.5 318.45,-165.5"/>
</g>
<!-- MaterialModule -->
<g id="node4" class="node">
<title>MaterialModule</title>
<polygon fill="#8dd3c7" stroke="black" points="379.47,-122 376.47,-126 355.47,-126 352.47,-122 272.53,-122 272.53,-86 379.47,-86 379.47,-122"/>
<text text-anchor="middle" x="326" y="-99.8" font-family="Times,serif" font-size="14.00">MaterialModule</text>
</g>
<!-- MaterialModule&#45;&gt;FeedModule -->
<g id="edge3" class="edge">
<title>MaterialModule&#45;&gt;FeedModule</title>
<path fill="none" stroke="black" d="M290.45,-122.11C290.45,-122.11 290.45,-140.99 290.45,-140.99"/>
<polygon fill="black" stroke="black" points="286.95,-140.99 290.45,-150.99 293.95,-140.99 286.95,-140.99"/>
</g>
<!-- SharedModule -->
<g id="node5" class="node">
<title>SharedModule</title>
<polygon fill="#8dd3c7" stroke="black" points="254.42,-122 251.42,-126 230.42,-126 227.42,-122 155.58,-122 155.58,-86 254.42,-86 254.42,-122"/>
<text text-anchor="middle" x="205" y="-99.8" font-family="Times,serif" font-size="14.00">SharedModule</text>
</g>
<!-- SharedModule&#45;&gt;FeedModule -->
<g id="edge4" class="edge">
<title>SharedModule&#45;&gt;FeedModule</title>
<path fill="none" stroke="black" d="M237.92,-122.11C237.92,-122.11 237.92,-140.99 237.92,-140.99"/>
<polygon fill="black" stroke="black" points="234.42,-140.99 237.92,-150.99 241.42,-140.99 234.42,-140.99"/>
</g>
</g>
</svg>
