<?xml version="1.0" encoding="UTF-8" standalone="no"?>
<!DOCTYPE svg PUBLIC "-//W3C//DTD SVG 1.1//EN"
 "http://www.w3.org/Graphics/SVG/1.1/DTD/svg11.dtd">
<!-- Generated by graphviz version 2.47.0 (20210316.0004)
 -->
<!-- Title: dependencies Pages: 1 -->
<svg width="565pt" height="211pt"
 viewBox="0.00 0.00 565.00 211.00" xmlns="http://www.w3.org/2000/svg" xmlns:xlink="http://www.w3.org/1999/xlink">
<g id="graph0" class="graph" transform="scale(1 1) rotate(0) translate(4 207)">
<title>dependencies</title>
<polygon fill="white" stroke="transparent" points="-4,4 -4,-207 561,-207 561,4 -4,4"/>
<text text-anchor="start" x="257.51" y="-42.4" font-family="sans-serif" font-weight="bold" font-size="14.00">Legend</text>
<polygon fill="#ffffb3" stroke="transparent" points="44.5,-10 44.5,-30 64.5,-30 64.5,-10 44.5,-10"/>
<text text-anchor="start" x="68.13" y="-15.4" font-family="sans-serif" font-size="14.00"> &#160;Declarations</text>
<polygon fill="#8dd3c7" stroke="transparent" points="157.5,-10 157.5,-30 177.5,-30 177.5,-10 157.5,-10"/>
<text text-anchor="start" x="181.23" y="-15.4" font-family="sans-serif" font-size="14.00"> &#160;Module</text>
<polygon fill="#80b1d3" stroke="transparent" points="243.5,-10 243.5,-30 263.5,-30 263.5,-10 243.5,-10"/>
<text text-anchor="start" x="267.28" y="-15.4" font-family="sans-serif" font-size="14.00"> &#160;Bootstrap</text>
<polygon fill="#fdb462" stroke="transparent" points="340.5,-10 340.5,-30 360.5,-30 360.5,-10 340.5,-10"/>
<text text-anchor="start" x="364.17" y="-15.4" font-family="sans-serif" font-size="14.00"> &#160;Providers</text>
<polygon fill="#fb8072" stroke="transparent" points="436.5,-10 436.5,-30 456.5,-30 456.5,-10 436.5,-10"/>
<text text-anchor="start" x="460.23" y="-15.4" font-family="sans-serif" font-size="14.00"> &#160;Exports</text>
<g id="clust1" class="cluster">
<title>cluster_PostsModule</title>
<polygon fill="none" stroke="black" stroke-dasharray="1,5" points="8,-70 8,-195 549,-195 549,-70 8,-70"/>
</g>
<g id="clust2" class="cluster">
<title>cluster_PostsModule_declarations</title>
<polygon fill="none" stroke="black" points="415,-78 415,-130 541,-130 541,-78 415,-78"/>
</g>
<g id="clust4" class="cluster">
<title>cluster_PostsModule_imports</title>
<polygon fill="none" stroke="black" points="16,-78 16,-130 407,-130 407,-78 16,-78"/>
</g>
<!-- PostsComponent -->
<g id="node1" class="node">
<title>PostsComponent</title>
<polygon fill="#ffffb3" stroke="black" points="533.39,-122 422.61,-122 422.61,-86 533.39,-86 533.39,-122"/>
<text text-anchor="middle" x="478" y="-99.8" font-family="Times,serif" font-size="14.00">PostsComponent</text>
</g>
<!-- PostsModule -->
<g id="node2" class="node">
<title>PostsModule</title>
<polygon fill="#8dd3c7" stroke="black" points="320.61,-187 317.61,-191 296.61,-191 293.61,-187 231.39,-187 231.39,-151 320.61,-151 320.61,-187"/>
<text text-anchor="middle" x="276" y="-164.8" font-family="Times,serif" font-size="14.00">PostsModule</text>
</g>
<!-- PostsComponent&#45;&gt;PostsModule -->
<g id="edge1" class="edge">
<title>PostsComponent&#45;&gt;PostsModule</title>
<path fill="none" stroke="black" d="M478,-122.11C478,-141.34 478,-169 478,-169 478,-169 330.83,-169 330.83,-169"/>
<polygon fill="black" stroke="black" points="330.83,-165.5 320.83,-169 330.83,-172.5 330.83,-165.5"/>
</g>
<!-- MaterialModule -->
<g id="node3" class="node">
<title>MaterialModule</title>
<polygon fill="#8dd3c7" stroke="black" points="399.47,-122 396.47,-126 375.47,-126 372.47,-122 292.53,-122 292.53,-86 399.47,-86 399.47,-122"/>
<text text-anchor="middle" x="346" y="-99.8" font-family="Times,serif" font-size="14.00">MaterialModule</text>
</g>
<!-- MaterialModule&#45;&gt;PostsModule -->
<g id="edge2" class="edge">
<title>MaterialModule&#45;&gt;PostsModule</title>
<path fill="none" stroke="black" d="M306.54,-122.11C306.54,-122.11 306.54,-140.99 306.54,-140.99"/>
<polygon fill="black" stroke="black" points="303.04,-140.99 306.54,-150.99 310.04,-140.99 303.04,-140.99"/>
</g>
<!-- PostsRoutingModule -->
<g id="node4" class="node">
<title>PostsRoutingModule</title>
<polygon fill="#8dd3c7" stroke="black" points="274.23,-122 271.23,-126 250.23,-126 247.23,-122 139.77,-122 139.77,-86 274.23,-86 274.23,-122"/>
<text text-anchor="middle" x="207" y="-99.8" font-family="Times,serif" font-size="14.00">PostsRoutingModule</text>
</g>
<!-- PostsRoutingModule&#45;&gt;PostsModule -->
<g id="edge3" class="edge">
<title>PostsRoutingModule&#45;&gt;PostsModule</title>
<path fill="none" stroke="black" d="M252.78,-122.11C252.78,-122.11 252.78,-140.99 252.78,-140.99"/>
<polygon fill="black" stroke="black" points="249.28,-140.99 252.78,-150.99 256.28,-140.99 249.28,-140.99"/>
</g>
<!-- SharedModule -->
<g id="node5" class="node">
<title>SharedModule</title>
<polygon fill="#8dd3c7" stroke="black" points="122.42,-122 119.42,-126 98.42,-126 95.42,-122 23.58,-122 23.58,-86 122.42,-86 122.42,-122"/>
<text text-anchor="middle" x="73" y="-99.8" font-family="Times,serif" font-size="14.00">SharedModule</text>
</g>
<!-- SharedModule&#45;&gt;PostsModule -->
<g id="edge4" class="edge">
<title>SharedModule&#45;&gt;PostsModule</title>
<path fill="none" stroke="black" d="M73,-122.11C73,-141.34 73,-169 73,-169 73,-169 221.2,-169 221.2,-169"/>
<polygon fill="black" stroke="black" points="221.2,-172.5 231.2,-169 221.2,-165.5 221.2,-172.5"/>
</g>
</g>
</svg>
